<?xml version="1.0" encoding="utf-8"?>
<!-- Generator: Adobe Illustrator 18.1.1, SVG Export Plug-In . SVG Version: 6.00 Build 0)  -->
<svg version="1.1" id="Layer_1" xmlns="http://www.w3.org/2000/svg" xmlns:xlink="http://www.w3.org/1999/xlink" x="0px" y="0px"
	 viewBox="0 0 80 80" enable-background="new 0 0 80 80" xml:space="preserve">
<g>
	<g>
		<path d="M31,69.8c0-14.1,0-27.2,0-40.4c-1.1-0.2-2.1-0.4-4-0.8c6.7-4.6,3.8-10.7,4.4-16.7c-1.8,0.4-3.1,0.6-4.7,1
			c2.2-3.7,4.2-7,6.3-10.4c1.8,3.3,3.7,6.7,5.8,10.5c-1.3-0.3-2.4-0.5-4.2-1c0,3.4-0.1,6.7,0.1,10c0,0.6,2,1.5,3,1.3
			c9-1.1,16.7,1.1,23.3,7.5c11.3,11,8.8,32.1-4.7,40.3c-9,5.5-22.7,6.7-34.3-5c-0.5,0.4-1,0.9-1.6,1.2c-0.6,0.3-1.5,0.7-1.9,0.5
			c-0.5-0.3-0.8-1.3-0.7-1.9c0.6-1.9,1.3-3.8,2.2-5.6c0.3-0.5,1.2-1.1,1.7-1c0.5,0.1,1,1,1.1,1.6C23.7,65.4,26.9,67.2,31,69.8z
			 M54.7,66.9c0.4-0.1,0.8-0.3,1.2-0.4c0-11.7,0-23.4-0.1-35.1c0-0.9-0.9-2.2-1.7-2.6c-4.9-2.5-10-4-15.5-3
			c-2.5,0.5-3.5,1.4-2.2,4.1c4.4,8.7,8.6,17.5,12.9,26.2C51.1,59.7,52.9,63.3,54.7,66.9z M35.5,33c-0.7,0.7-1,0.9-1,1
			c-0.1,11.7-0.1,23.4,0,35.1c0,0.9,0.9,2.3,1.6,2.5c5.8,1.5,11.5,1.2,17.3-1.9C47.3,57.4,41.5,45.3,35.5,33z M59.2,64.6
			c9.4-8.2,7.9-25.5,0-30.8C59.2,44,59.2,54,59.2,64.6z" stroke="white" fill="white" stroke-width="2" />
	</g>
</g>
</svg>
